Coordinates
version=1
nRows=32
nColumns=12
inDegrees=yes

Units are S.I. units (second, meters, Newtons, ...)
Angles are in degrees

endheader
time	SC_y	SC_z	SC_x	AC_y	AC_z	AC_x	GH_y	GH_z	GH_yy	EL_x	PS_y
       0.0              -43.44          39.14          5.856          39.09          9.189          5.744         -163.7          45.15          39.53          24.68          105.6
   0.01825              -43.44          39.13          5.862          39.09          9.185          5.742         -163.6          45.14          39.54          24.69          105.6
    0.0365              -43.45          39.13          5.869          39.09           9.18          5.739         -163.6          45.14          39.54           24.7          105.6
   0.05476              -43.45          39.12          5.876          39.09          9.176          5.736         -163.6          45.13          39.55          24.72          105.6
   0.07301              -43.45          39.11          5.884          39.09          9.171          5.733         -163.5          45.13          39.56          24.73          105.6
   0.09126              -43.45          39.11          5.893           39.1          9.165           5.73         -163.5          45.12          39.57          24.75          105.6
    0.1095              -43.45           39.1          5.901           39.1           9.16          5.727         -163.4          45.12          39.57          24.76          105.6
    0.1278              -43.45          39.09          5.911           39.1          9.154          5.723         -163.3          45.11          39.58          24.78          105.6
     0.146              -43.45          39.09          5.921           39.1          9.147          5.719         -163.3           45.1          39.59           24.8          105.6
    0.1643              -43.45          39.08          5.932           39.1           9.14          5.715         -163.2           45.1           39.6          24.82          105.6
    0.1825              -43.45          39.07          5.944          39.11          9.133          5.711         -163.1          45.09          39.61          24.84          105.6
    0.2008              -43.45          39.06          5.956          39.11          9.125          5.706         -163.1          45.08          39.63          24.87          105.6
     0.219              -43.45          39.05           5.97          39.11          9.116          5.701         -163.0          45.07          39.64          24.89          105.6
    0.2373              -43.45          39.04          5.985          39.11          9.107          5.696         -162.9          45.06          39.65          24.92          105.6
    0.2555              -43.45          39.03          6.001          39.12          9.097           5.69         -162.8          45.05          39.67          24.95          105.6
    0.2738              -43.46          39.01          6.018          39.12          9.086          5.683         -162.7          45.04          39.68          24.99          105.6
     0.292              -43.46           39.0          6.037          39.13          9.074          5.676         -162.6          45.03           39.7          25.02          105.6
    0.3103              -43.46          38.98          6.057          39.13          9.061          5.668         -162.4          45.01          39.72          25.06          105.6
    0.3285              -43.46          38.97           6.08          39.13          9.047           5.66         -162.3           45.0          39.74           25.1          105.6
    0.3468              -43.46          38.95          6.104          39.14          9.031          5.651         -162.1          44.98          39.76          25.15          105.6
     0.365              -43.46          38.93          6.131          39.14          9.014          5.641         -162.0          44.97          39.79           25.2          105.6
    0.3833              -43.47          38.91           6.16          39.15          8.995           5.63         -161.8          44.95          39.82          25.26          105.6
    0.4015              -43.47          38.88          6.193          39.16          8.975          5.617         -161.6          44.93          39.85          25.32          105.6
    0.4198              -43.47          38.86          6.229          39.16          8.952          5.604         -161.4           44.9          39.88          25.39          105.6
     0.438              -43.47          38.83          6.269          39.17          8.926          5.589         -161.1          44.88          39.92          25.46          105.6
    0.4563              -43.48          38.79          6.314          39.18          8.898          5.572         -160.8          44.85          39.96          25.55          105.6
    0.4746              -43.48          38.76          6.364          39.19          8.866          5.553         -160.5          44.81          40.01          25.65          105.7
    0.4928              -43.48          38.71          6.421           39.2           8.83          5.532         -160.2          44.78          40.06          25.75          105.7
    0.5111              -43.49          38.67          6.485          39.22           8.79          5.508         -159.8          44.73          40.12          25.87          105.7
    0.5293              -43.49          38.61          6.557          39.23          8.744          5.481         -159.3          44.69          40.19          26.01          105.7
    0.5476               -43.5          38.55           6.64          39.25          8.691           5.45         -158.8          44.63          40.26          26.17          105.7
    0.5658              -43.51          38.48          6.735          39.27          8.631          5.414         -158.2          44.57          40.35          26.35          105.7
